<?xml version="1.0" encoding="UTF-8" standalone="no"?>
<svg
   version="1.1"
   width="577.97144"
   height="448.62289"
   viewBox="0 0 577.97143 448.62289"
   id="svg68"
   sodipodi:docname="logo_transparent_white.svg"
   inkscape:export-xdpi="480"
   inkscape:export-ydpi="480"
   inkscape:version="1.2.2 (b0a8486541, 2022-12-01)"
   xmlns:inkscape="http://www.inkscape.org/namespaces/inkscape"
   xmlns:sodipodi="http://sodipodi.sourceforge.net/DTD/sodipodi-0.dtd"
   xmlns="http://www.w3.org/2000/svg"
   xmlns:svg="http://www.w3.org/2000/svg">
  <defs
     id="defs72">
    <defs
       id="defs57" />
  </defs>
  <sodipodi:namedview
     id="namedview70"
     pagecolor="#ffffff"
     bordercolor="#666666"
     borderopacity="1.0"
     inkscape:pageshadow="2"
     inkscape:pageopacity="0"
     inkscape:pagecheckerboard="true"
     showgrid="false"
     fit-margin-top="0"
     fit-margin-left="0"
     fit-margin-right="0"
     fit-margin-bottom="0"
     inkscape:zoom="1.746"
     inkscape:cx="338.77434"
     inkscape:cy="149.19817"
     inkscape:window-width="2494"
     inkscape:window-height="1371"
     inkscape:window-x="0"
     inkscape:window-y="0"
     inkscape:window-maximized="1"
     inkscape:current-layer="g66"
     inkscape:showpageshadow="2"
     inkscape:deskcolor="#d1d1d1"
     showborder="true"
     shape-rendering="auto" />
  <g
     transform="matrix(0.7,0,0,0.7,121.58182,186.68486)"
     id="g66">
    <g
       transform="matrix(0.58654896,0,0,0.58654896,0,4.2242478)"
       id="g28"
       style="fill:#ffffff">
      <svg
         viewBox="0 0 395.52 234.72823"
         height="234.72823"
         width="395.51999"
         version="1.1"
         id="svg26"
         style="fill:#ffffff">
        <g
           id="g24"
           style="fill:#ffffff">
          <svg
             viewBox="0 0 395.52 234.72823"
             height="234.72823"
             width="395.51999"
             version="1.1"
             id="svg22"
             style="fill:#ffffff">
            <g
               id="g11"
               style="fill:#ffffff">
              <svg
                 viewBox="0 0 395.52 145.57074"
                 height="145.57074"
                 width="395.51999"
                 version="1.1"
                 id="svg9"
                 style="fill:#ffffff">
                <g
                   id="g7"
                   style="fill:#ffffff">
                  <svg
                     width="395.51999"
                     viewBox="5 -39.05 106.1 39.05"
                     height="145.57074"
                     data-palette-color="#ffffff"
                     version="1.1"
                     id="svg5"
                     style="fill:#ffffff">
                    <path
                       d="M 6.95,0 V 0 Q 6.1,0 5.55,-0.55 5,-1.1 5,-1.95 v 0 -35.15 q 0,-0.85 0.55,-1.4 0.55,-0.55 1.4,-0.55 v 0 q 0.85,0 1.4,0.55 0.55,0.55 0.55,1.4 v 0 15.6 h 24.4 v -15.6 q 0,-0.85 0.55,-1.4 0.55,-0.55 1.4,-0.55 v 0 q 0.85,0 1.4,0.55 0.55,0.55 0.55,1.4 v 0 35.15 q 0,0.85 -0.55,1.4 Q 36.1,0 35.25,0 V 0 Q 34.4,0 33.85,-0.55 33.3,-1.1 33.3,-1.95 v 0 V -18 H 8.9 v 16.05 q 0,0.85 -0.55,1.4 Q 7.8,0 6.95,0 Z m 51.2,0 h -9 Q 48.3,0 47.75,-0.55 47.2,-1.1 47.2,-1.95 v 0 -35.15 q 0,-0.85 0.55,-1.4 0.55,-0.55 1.4,-0.55 v 0 h 9 q 4.3,0 7.87,1.42 3.58,1.43 6.18,4.05 2.6,2.63 4.02,6.18 1.43,3.55 1.43,7.85 v 0 q 0,4.3 -1.43,7.87 -1.42,3.58 -4.02,6.2 -2.6,2.63 -6.18,4.05 Q 62.45,0 58.15,0 Z M 51.1,-35.55 V -3.5 h 7.05 q 4.6,0 8.12,-2.08 3.53,-2.07 5.53,-5.7 2,-3.62 2,-8.27 v 0 q 0,-4.65 -2,-8.28 -2,-3.62 -5.53,-5.67 -3.52,-2.05 -8.12,-2.05 v 0 z M 109.15,0 H 87.65 Q 86.85,0 86.27,-0.55 85.7,-1.1 85.7,-1.95 v 0 -35.15 q 0,-0.8 0.57,-1.38 0.58,-0.57 1.38,-0.57 v 0 q 0.8,0 1.37,0.57 0.58,0.58 0.58,1.38 v 0 33.4 h 19.55 q 0.8,0 1.37,0.52 0.58,0.53 0.58,1.33 v 0 q 0,0.8 -0.58,1.32 Q 109.95,0 109.15,0 Z"
                       opacity="1"
                       fill="#ffffff"
                       class="undefined-text-0"
                       data-fill-palette-color="primary"
                       id="text-0"
                       style="fill:#ffffff" />
                  </svg>
                </g>
              </svg>
            </g>
            <g
               transform="translate(0,179.9365)"
               id="g20"
               style="fill:#ffffff">
              <svg
                 viewBox="0 0 375.744 54.791725"
                 height="54.791725"
                 width="375.74399"
                 version="1.1"
                 id="svg18"
                 style="fill:#ffffff">
                <g
                   id="g16"
                   style="fill:#ffffff">
                  <svg
                     width="375.74399"
                     viewBox="5 -39.55 274.63 40.05"
                     height="54.791725"
                     data-palette-color="#ffffff"
                     version="1.1"
                     id="svg14"
                     style="fill:#ffffff">
                    <path
                       d="M 7.15,0 V 0 Q 6.25,0 5.63,-0.63 5,-1.25 5,-2.15 v 0 -34.75 q 0,-0.95 0.63,-1.55 0.62,-0.6 1.52,-0.6 v 0 h 9.25 q 3.7,0 6.55,1.55 2.85,1.55 4.48,4.27 1.62,2.73 1.62,6.33 v 0 q 0,3.4 -1.62,6.05 -1.63,2.65 -4.48,4.15 -2.85,1.5 -6.55,1.5 v 0 H 9.35 v 13.05 q 0,0.9 -0.63,1.52 Q 8.1,0 7.15,0 Z M 28,0 V 0 Q 27.35,0 26.9,-0.28 26.45,-0.55 26.15,-1.1 v 0 l -9.4,-15 4.25,-1.15 8.7,13.9 q 0.8,1.3 0.28,2.32 Q 29.45,0 28,0 Z M 9.35,-34.95 v 15.65 h 7.05 q 2.45,0 4.35,-0.98 1.9,-0.97 3,-2.7 1.1,-1.72 1.1,-3.92 v 0 q 0,-2.4 -1.1,-4.2 -1.1,-1.8 -3,-2.83 -1.9,-1.02 -4.35,-1.02 v 0 z M 61.5,0 H 38.3 q -0.9,0 -1.53,-0.63 -0.62,-0.62 -0.62,-1.52 v 0 -34.75 q 0,-0.95 0.62,-1.55 0.63,-0.6 1.53,-0.6 v 0 h 23.2 q 0.9,0 1.52,0.57 0.63,0.58 0.63,1.53 v 0 q 0,0.85 -0.63,1.43 -0.62,0.57 -1.52,0.57 v 0 h -21 v 13.25 h 15.2 q 0.95,0 1.55,0.6 0.6,0.6 0.6,1.45 v 0 q 0,0.9 -0.6,1.5 -0.6,0.6 -1.55,0.6 v 0 H 40.5 V -4.1 h 21 q 0.9,0 1.52,0.57 0.63,0.58 0.63,1.43 v 0 q 0,0.95 -0.63,1.52 Q 62.4,0 61.5,0 Z m 26.95,0.5 v 0 q -4.05,0 -7.58,-1.55 -3.52,-1.55 -6.2,-4.3 -2.67,-2.75 -4.15,-6.38 -1.47,-3.62 -1.47,-7.82 v 0 q 0,-4.15 1.47,-7.78 1.48,-3.62 4.13,-6.35 2.65,-2.72 6.17,-4.3 3.53,-1.57 7.63,-1.57 v 0 q 3.65,0 6.55,1.02 2.9,1.03 5.65,3.33 v 0 q 0.45,0.35 0.57,0.77 0.13,0.43 0.03,0.83 -0.1,0.4 -0.4,0.65 v 0 q -0.05,0.6 -0.55,0.95 -0.5,0.35 -1.18,0.32 -0.67,-0.02 -1.27,-0.52 v 0 q -1.9,-1.65 -4.1,-2.48 -2.2,-0.82 -5.3,-0.82 v 0 q -3.15,0 -5.9,1.25 -2.75,1.25 -4.85,3.45 -2.1,2.2 -3.28,5.1 -1.17,2.9 -1.17,6.15 v 0 q 0,3.35 1.17,6.22 1.18,2.88 3.28,5.08 2.1,2.2 4.85,3.45 2.75,1.25 5.9,1.25 v 0 q 2.65,0 5.05,-0.9 2.4,-0.9 4.55,-2.55 v 0 q 0.7,-0.55 1.45,-0.45 0.75,0.1 1.27,0.65 0.53,0.55 0.53,1.45 v 0 q 0,0.4 -0.13,0.77 -0.12,0.38 -0.47,0.78 v 0 q -2.6,2.3 -5.73,3.3 -3.12,1 -6.52,1 z m 12.85,-18.1 v 12.25 l -4.2,-0.9 v -9.65 h -7.5 q -0.9,0 -1.53,-0.55 -0.62,-0.55 -0.62,-1.4 v 0 q 0,-0.85 0.62,-1.38 0.63,-0.52 1.53,-0.52 v 0 h 9.55 q 0.95,0 1.55,0.6 0.6,0.6 0.6,1.55 z M 111.69,0 v 0 q -0.9,0 -1.52,-0.63 -0.63,-0.62 -0.63,-1.52 v 0 -34.75 q 0,-0.95 0.63,-1.55 0.62,-0.6 1.52,-0.6 v 0 q 0.95,0 1.58,0.6 0.62,0.6 0.62,1.55 v 0 34.75 q 0,0.9 -0.62,1.52 Q 112.64,0 111.69,0 Z m 24.35,0.5 v 0 q -3.2,0 -6,-0.95 -2.8,-0.95 -4.85,-2.68 -2.05,-1.72 -3.05,-4.02 v 0 q -0.45,-0.9 -0.02,-1.65 0.42,-0.75 1.42,-1 v 0 q 0.8,-0.2 1.53,0.2 0.72,0.4 1.12,1.2 v 0 q 0.7,1.35 2.13,2.47 1.42,1.13 3.4,1.76 1.97,0.62 4.32,0.62 v 0 q 2.55,0 4.6,-0.83 2.05,-0.82 3.25,-2.42 1.2,-1.6 1.2,-3.9 v 0 q 0,-2.9 -2.2,-5.08 -2.2,-2.17 -7,-2.72 v 0 q -5.95,-0.65 -9.32,-3.63 -3.38,-2.97 -3.38,-7.32 v 0 q 0,-3.1 1.7,-5.38 1.7,-2.27 4.65,-3.5 2.95,-1.22 6.7,-1.22 v 0 q 2.85,0 5.13,0.87 2.27,0.88 3.95,2.33 1.67,1.45 2.77,3.25 v 0 q 0.6,0.9 0.43,1.72 -0.18,0.83 -0.93,1.28 v 0 q -0.8,0.45 -1.67,0.17 -0.88,-0.27 -1.33,-1.07 v 0 q -0.8,-1.25 -1.92,-2.27 -1.13,-1.03 -2.7,-1.61 -1.58,-0.57 -3.78,-0.62 v 0 q -3.9,0 -6.32,1.57 -2.43,1.58 -2.43,4.73 v 0 q 0,1.6 0.85,3.02 0.85,1.43 2.93,2.43 2.07,1 5.72,1.5 v 0 q 6.15,0.8 9.28,3.75 3.12,2.95 3.12,7.75 v 0 q 0,2.75 -1.05,4.85 -1.05,2.1 -2.87,3.52 -1.83,1.43 -4.25,2.15 -2.43,0.73 -5.13,0.73 z M 166.84,0 v 0 q -0.9,0 -1.53,-0.63 -0.62,-0.62 -0.62,-1.52 v 0 -36.9 h 4.35 v 36.9 q 0,0.9 -0.63,1.52 Q 167.79,0 166.84,0 Z m 13.7,-35.1 h -27.35 q -0.9,0 -1.45,-0.55 -0.55,-0.55 -0.55,-1.4 v 0 q 0,-0.9 0.55,-1.45 0.55,-0.55 1.45,-0.55 v 0 h 27.35 q 0.9,0 1.45,0.55 0.55,0.55 0.55,1.45 v 0 q 0,0.85 -0.55,1.4 -0.55,0.55 -1.45,0.55 z M 213.64,0 h -23.2 q -0.9,0 -1.53,-0.63 -0.62,-0.62 -0.62,-1.52 v 0 -34.75 q 0,-0.95 0.62,-1.55 0.63,-0.6 1.53,-0.6 v 0 h 23.2 q 0.9,0 1.52,0.57 0.63,0.58 0.63,1.53 v 0 q 0,0.85 -0.63,1.43 -0.62,0.57 -1.52,0.57 v 0 h -21 v 13.25 h 15.2 q 0.95,0 1.55,0.6 0.6,0.6 0.6,1.45 v 0 q 0,0.9 -0.6,1.5 -0.6,0.6 -1.55,0.6 v 0 h -15.2 V -4.1 h 21 q 0.9,0 1.52,0.57 0.63,0.58 0.63,1.43 v 0 q 0,0.95 -0.63,1.52 Q 214.54,0 213.64,0 Z m 11.54,0 v 0 q -0.9,0 -1.52,-0.63 -0.63,-0.62 -0.63,-1.52 v 0 -34.75 q 0,-0.95 0.63,-1.55 0.62,-0.6 1.52,-0.6 v 0 h 9.25 q 3.7,0 6.55,1.55 2.85,1.55 4.48,4.27 1.62,2.73 1.62,6.33 v 0 q 0,3.4 -1.62,6.05 -1.63,2.65 -4.48,4.15 -2.85,1.5 -6.55,1.5 v 0 h -7.05 v 13.05 q 0,0.9 -0.62,1.52 Q 226.13,0 225.18,0 Z m 20.85,0 v 0 q -0.65,0 -1.1,-0.28 -0.45,-0.27 -0.75,-0.82 v 0 l -9.4,-15 4.25,-1.15 8.7,13.9 q 0.8,1.3 0.28,2.32 Q 247.48,0 246.03,0 Z m -18.65,-34.95 v 15.65 h 7.05 q 2.45,0 4.35,-0.98 1.9,-0.97 3,-2.7 1.1,-1.72 1.1,-3.92 v 0 q 0,-2.4 -1.1,-4.2 -1.1,-1.8 -3,-2.83 -1.9,-1.02 -4.35,-1.02 v 0 z M 266.33,0.5 v 0 q -3.2,0 -6,-0.95 -2.8,-0.95 -4.85,-2.68 -2.05,-1.72 -3.05,-4.02 v 0 q -0.45,-0.9 -0.02,-1.65 0.42,-0.75 1.42,-1 v 0 q 0.8,-0.2 1.53,0.2 0.72,0.4 1.12,1.2 v 0 q 0.7,1.35 2.13,2.47 1.42,1.13 3.4,1.76 1.97,0.62 4.32,0.62 v 0 q 2.55,0 4.6,-0.83 2.05,-0.82 3.25,-2.42 1.2,-1.6 1.2,-3.9 v 0 q 0,-2.9 -2.2,-5.08 -2.2,-2.17 -7,-2.72 v 0 q -5.95,-0.65 -9.32,-3.63 -3.38,-2.97 -3.38,-7.32 v 0 q 0,-3.1 1.7,-5.38 1.7,-2.27 4.65,-3.5 2.95,-1.22 6.7,-1.22 v 0 q 2.85,0 5.13,0.87 2.27,0.88 3.95,2.33 1.67,1.45 2.77,3.25 v 0 q 0.6,0.9 0.43,1.72 -0.18,0.83 -0.93,1.28 v 0 q -0.8,0.45 -1.67,0.17 -0.88,-0.27 -1.33,-1.07 v 0 q -0.8,-1.25 -1.92,-2.27 -1.13,-1.03 -2.7,-1.61 -1.58,-0.57 -3.78,-0.62 v 0 q -3.9,0 -6.32,1.57 -2.43,1.58 -2.43,4.73 v 0 q 0,1.6 0.85,3.02 0.85,1.43 2.93,2.43 2.07,1 5.72,1.5 v 0 q 6.15,0.8 9.28,3.75 3.12,2.95 3.12,7.75 v 0 q 0,2.75 -1.05,4.85 -1.05,2.1 -2.87,3.52 -1.83,1.43 -4.25,2.15 -2.43,0.73 -5.13,0.73 z"
                       opacity="1"
                       fill="#ffffff"
                       class="undefined-text-1"
                       data-fill-palette-color="secondary"
                       id="text-1"
                       style="fill:#ffffff" />
                  </svg>
                </g>
              </svg>
            </g>
          </svg>
        </g>
      </svg>
    </g>
    <g
       transform="matrix(0.5526815,0,0,0.5526815,304.53565,4.3314336)"
       id="g51">
      <svg
         viewBox="0 0 244.43136 249.13196"
         height="249.13196"
         width="244.43137"
         version="1.1"
         id="svg49"
         style="fill:#ffffff">
        <g
           id="g47"
           style="fill:#ffffff">
          <svg
             version="1.1"
             x="0"
             y="0"
             viewBox="5.8 5 88.4 90.1"
             enable-background="new 0 0 100 100"
             xml:space="preserve"
             height="249.13196"
             width="244.43137"
             class="icon-icon-0"
             data-fill-palette-color="accent"
             id="icon-0"
             style="fill:#ffffff"><g
               fill="#fe6152"
               data-fill-palette-color="accent"
               id="g44"
               style="fill:#ffffff"><path
                 d="m 89.7,63.9 c -1.9,-2.7 -3.7,-5.1 -4.9,-8 -0.4,-1 -1,-2 -1.7,-2.8 C 80.3,49.9 77.5,46.7 74.6,43.5 69.5,37.8 63.4,33.2 56.8,29.4 50.8,25.9 44.7,22.5 38.6,19.2 36.1,17.8 33.4,16.6 30.8,15.4 29.5,14.8 28,14.6 26.7,14.1 25.2,13.6 23.6,13.3 22.2,12.6 19.2,11 15.9,10.4 12.8,9.5 11.6,9.1 10.4,8.9 9.7,7.7 8.8,6.2 8.8,5.7 10.4,5.5 12.2,5.2 14.2,5 16,5.2 c 4,0.5 8,1.3 12,2 1,0.2 1.9,0.6 2.9,1 10.9,4.7 21.2,10.4 31.2,16.7 6,3.8 11.3,8.4 15.7,13.9 1.8,2.3 3.7,4.5 5.6,6.7 1.7,1.9 3.1,4 4,6.4 1,2.5 2.2,4.9 3.3,7.3 0.8,1.7 0.3,3.1 -1,4.7 z"
                 fill="#fe6152"
                 data-fill-palette-color="accent"
                 id="path30"
                 style="fill:#ffffff" /><path
                 d="m 5.8,21.8 c 2.3,-1.4 4.5,-1.8 7,-1.4 4.7,0.8 9.3,2.2 13.7,4.1 5.9,2.5 11.8,4.7 17.3,8.1 11.2,7 20.5,15.9 28.4,26.3 3.2,4.2 6.9,8.1 9.5,12.7 1.1,1.9 2,3.9 3,5.8 1,1.8 2.1,3.5 3,5.3 0.8,1.6 1.2,3.4 1.8,5.1 0.5,1.5 1,3 1.6,4.5 0.2,0.6 0.6,1.2 -0.1,1.8 -0.7,0.6 -1.4,0.3 -1.9,-0.2 -0.4,-0.4 -0.9,-0.8 -1,-1.3 C 87.6,90 85.8,88.1 84.6,85.9 84.3,85.3 83.8,84.8 83.6,84.2 81.3,78.7 77.7,73.9 74,69.3 68.7,62.9 63.5,56.4 57.4,50.7 52.4,46 47.1,42 41.4,38.4 37,35.7 32.5,33.2 27.9,30.9 23.8,28.8 19.5,27 15.2,25.3 13.3,24.6 11.3,24.3 9.3,23.9 8,23.7 6.9,23.2 5.8,21.8 Z"
                 fill="#fe6152"
                 data-fill-palette-color="accent"
                 id="path32"
                 style="fill:#ffffff" /><path
                 d="M 72.7,93.2 C 70.8,90.8 68.8,88.4 67.1,85.9 64.9,82.6 62.8,79.5 59.7,76.9 54.6,72.7 49.8,68.2 44.7,64 39.6,59.8 33.9,56.4 28,53.6 25.3,52.3 22.6,50.9 19.7,49.8 17.8,49.1 16,48.4 14.2,47.3 12.7,46.4 10.8,46.1 9.1,45.6 8.3,45.3 7.4,45.2 6.7,44.7 6.3,44.4 6,43.6 6,43 c 0,-0.4 0.7,-1 1.2,-1 1.3,-0.2 2.6,-0.3 3.9,-0.1 4.1,0.7 8.1,1.4 11.9,3.4 0.8,0.4 1.6,0.8 2.4,1 6.4,1.7 11.6,5.6 16.9,9.2 3.9,2.7 7.3,6.2 11,9.1 3.8,3 7.2,6.3 10.1,10.1 1.9,2.6 3.7,5.4 5.4,8.1 1.2,2 2.3,4 3.4,6.1 0.6,1.3 1,2.7 1.1,4.1 -0.3,0 -0.5,0.1 -0.6,0.2 z"
                 fill="#fe6152"
                 data-fill-palette-color="accent"
                 id="path34"
                 style="fill:#ffffff" /><path
                 d="m 93.4,37.1 c -0.4,0.5 -0.6,0.9 -1,1.2 -1.3,1.3 -2,1.2 -3.1,-0.3 C 88.4,36.8 87.6,35.5 86.7,34.3 82.2,28.2 76,23.9 70,19.3 67.3,17.3 64.6,15.1 61.9,13.1 61.2,12.6 60.5,11.9 59.7,11.7 57.8,11.2 56.5,9.8 55,8.7 54.6,8.4 54.3,7.9 54.1,7.5 53.8,6.6 54.1,6 55,6 c 1.3,0 2.6,0 3.9,0.4 3.6,1.1 6.8,3.3 9.8,5.5 1.5,1.1 2.8,2.3 4.3,3.3 4.1,2.7 7.7,5.9 11.4,9.1 3.1,2.6 7.1,8.4 9,12.8 z"
                 fill="#fe6152"
                 data-fill-palette-color="accent"
                 id="path36"
                 style="fill:#ffffff" /><path
                 d="m 51.4,92.8 c -1.3,-2.1 -2.5,-3.5 -3.2,-5.2 -1.2,-3 -2.9,-5.4 -5.6,-7.3 -2.2,-1.6 -4,-3.5 -6.3,-5 -3,-2 -6.3,-3.6 -9.4,-5.4 C 21.8,67 16,65.7 10.4,64.2 9.4,63.9 8.3,63.9 7.2,63.7 6.9,63.6 6.3,63.1 6.4,62.9 c 0,-0.4 0.4,-1 0.7,-1.2 0.8,-0.3 1.7,-0.5 2.5,-0.5 3.9,0.1 7.7,0.9 11.5,2 4.4,1.2 8.5,3.2 12.6,5.3 3.5,1.8 6.7,4.3 9.6,7.1 1.8,1.7 3.8,3.1 5,5.4 1.2,2.3 2.4,4.6 3.5,7 0.4,0.8 0.5,1.8 0.5,2.7 0,0.5 -0.5,1.1 -0.9,2.1 z"
                 fill="#fe6152"
                 data-fill-palette-color="accent"
                 id="path38"
                 style="fill:#ffffff" /><path
                 d="m 81.4,5 c 6.8,1.9 9.8,7.3 12.8,12.6 -2.7,3 -3.3,3.1 -5.6,0.1 C 86.9,15.5 85.3,13.3 83.7,11.1 83.5,10.8 83.2,10.6 82.9,10.4 80.7,9 80.4,8.1 81.4,5 Z"
                 fill="#fe6152"
                 data-fill-palette-color="accent"
                 id="path40"
                 style="fill:#ffffff" /><path
                 d="m 27.8,94.9 c -0.7,-1.9 -1.3,-3.8 -2.2,-5.6 -1.4,-3 -3.4,-5.4 -6.4,-6.7 -2.9,-1.2 -6,-2.2 -8.9,-3.3 -1.3,-0.5 -2,-1 -2.8,-2.3 1.4,-0.6 2.9,-0.4 4.2,0 3.1,0.9 6.1,1.8 9,3.1 1.5,0.6 2.6,2 3.9,3.1 2.9,2.4 3.3,6.1 4.5,9.4 0.4,1.1 -0.5,1.7 -0.7,2.5 C 28.2,95 28,94.9 27.8,94.9 Z"
                 fill="#fe6152"
                 data-fill-palette-color="accent"
                 id="path42"
                 style="fill:#ffffff" /></g></svg>
        </g>
      </svg>
    </g>
    <rect
       width="996.92706"
       height="368.32288"
       fill="none"
       stroke="none"
       visibility="hidden"
       id="rect61"
       x="1.5364383"
       y="-0.16143104"
       style="stroke-width:2.52055" />
  </g>
</svg>
